<svg width="150" height="150" viewBox="-10 0 150 150" fill="none" xmlns="http://www.w3.org/2000/svg">
<path d="M64.8597 125.471V146.259L126.703 110.554V39.1271L116.46 45.3704" stroke="#9A71F2" stroke-width="5.94833" stroke-linecap="round" stroke-linejoin="round"/>
<path d="M21.865 50.5169L3 39.1271V110.554L64.8597 146.259V125.471" stroke="#9A71F2" stroke-width="5.94833" stroke-linecap="round" stroke-linejoin="round"/>
<path d="M21.865 50.5169L3 39.1271L64.8597 3.42189L126.703 39.1271L107.838 50.5169" stroke="#9A71F2" stroke-width="5.94833" stroke-linecap="round" stroke-linejoin="round"/>
<path d="M3 38.7052V110.132L64.8597 145.838L126.703 110.132V38.7052L64.8597 3L3 38.7052Z" stroke="#9A71F2" stroke-width="5.94833" stroke-linecap="round" stroke-linejoin="round"/>
<path d="M64.86 125.285L107.973 100.396V50.6182L64.86 25.7291L21.7472 50.6182V100.396L64.86 125.285ZM39.5492 60.8944L64.86 46.2816L90.1709 60.8944V90.1199L64.86 104.733L39.5492 90.1199V60.8944Z" stroke="#9A71F2" stroke-width="5.94833" stroke-linecap="round" stroke-linejoin="round"/>
<path d="M39.549 60.8943L64.8598 76.7895V104.716L39.549 90.1199V60.8943Z" stroke="#9A71F2" stroke-width="2.38889" stroke-miterlimit="10"/>
<path d="M90.1537 60.8943L64.8597 76.7895V104.716L90.1537 90.1199V60.8943Z" fill="#9A71F2"/>
<path d="M39.549 60.8944L64.8598 46.2816L90.1538 60.8944L64.8598 76.7896L39.549 60.8944Z" stroke="#9A71F2" stroke-width="5.94833" stroke-linecap="round" stroke-linejoin="round"/>
<path d="M64.8597 145.838V125.471L107.956 100.396V50.6182L126.703 39.1271V110.132L64.8597 145.838Z" fill="#9A71F2"/>
</svg>
